<?xml version="1.0" ?><svg data-name="Layer 1" id="Layer_1" viewBox="0 0 64 64" xmlns="http://www.w3.org/2000/svg"><defs><style>.cls-1{fill:#4fbe9f;}.cls-2{fill:#09816c;}</style></defs><title/><circle class="cls-1" cx="32" cy="32" r="20.75"/><path class="cls-2" d="M32,8A24,24,0,1,0,56,32,24,24,0,0,0,32,8ZM51.4,30.27a62.31,62.31,0,0,0-12.84.86c-.49-1.19-1-2.33-1.51-3.41.32-.15.64-.3.94-.46A28.4,28.4,0,0,0,47.31,20,19.25,19.25,0,0,1,51.4,30.27ZM44.11,16.74a24.11,24.11,0,0,1-9.06,7c-.43-.79-.84-1.55-1.25-2.26a89.87,89.87,0,0,0-5.52-8.56A20,20,0,0,1,32,12.52a19.36,19.36,0,0,1,12.11,4.22ZM18.23,18.23a19.35,19.35,0,0,1,5.5-3.88,81.21,81.21,0,0,1,6.21,9.41c.28.5.56,1,.85,1.55a44.93,44.93,0,0,1-6.06,1.4,58.24,58.24,0,0,1-11.66.66,19.3,19.3,0,0,1,5.16-9.14ZM12.52,32v-.14c.83.05,1.89.08,3.13.08a62,62,0,0,0,9.69-.75,48,48,0,0,0,7.51-1.81q.61,1.32,1.23,2.73a40.4,40.4,0,0,0-8.2,3.15,28.29,28.29,0,0,0-9.71,8.1A19.33,19.33,0,0,1,12.52,32Zm6.77,14.76c3.43-5,9-8.51,16.46-10.42a70.62,70.62,0,0,1,3.54,13.73,19.5,19.5,0,0,1-20-3.31Zm26.48-1a18.6,18.6,0,0,1-2.29,2,76.45,76.45,0,0,0-3.26-12.31,58.37,58.37,0,0,1,11.06-.64,19.28,19.28,0,0,1-5.51,11Zm0,0"/></svg>